<?xml version="1.0" encoding="UTF-8" standalone="no"?>
<!DOCTYPE svg PUBLIC "-//W3C//DTD SVG 1.0//EN"
 "http://www.w3.org/TR/2001/REC-SVG-20010904/DTD/svg10.dtd" [
 <!ATTLIST svg xmlns:xlink CDATA #FIXED "http://www.w3.org/1999/xlink">
]>
<!-- Generated by Graphviz version 2.18 (Wed Aug &#160;6 10:29:47 UTC 2008)
     For user: (jukka) jukka,,, -->
<!-- Title: controllers_diagram Pages: 1 -->
<svg width="926pt" height="342pt"
 viewBox="0.00 0.00 926.00 342.00" xmlns="http://www.w3.org/2000/svg" xmlns:xlink="http://www.w3.org/1999/xlink">
<g id="graph0" class="graph" transform="scale(1 1) rotate(0) translate(4 338)">
<title>controllers_diagram</title>
<polygon style="fill:white;stroke:white;" points="-4,4 -4,-338 922,-338 922,4 -4,4"/>
<!-- EdgesController -->
<g id="node1" class="node"><title>EdgesController</title>
<polyline style="fill:none;stroke:black;" points="12,-90 93,-90 "/>
<path style="fill:none;stroke:black;" d="M93,-90C99,-90 105,-96 105,-102"/>
<polyline style="fill:none;stroke:black;" points="105,-102 105,-232 "/>
<path style="fill:none;stroke:black;" d="M105,-232C105,-238 99,-244 93,-244"/>
<polyline style="fill:none;stroke:black;" points="93,-244 12,-244 "/>
<path style="fill:none;stroke:black;" d="M12,-244C6,-244 0,-238 0,-232"/>
<polyline style="fill:none;stroke:black;" points="0,-232 0,-102 "/>
<path style="fill:none;stroke:black;" d="M0,-102C0,-96 6,-90 12,-90"/>
<text text-anchor="middle" x="52" y="-227.4" style="font-family:Times New Roman;font-size:14.00;">EdgesController</text>
<polyline style="fill:none;stroke:black;" points="0,-218 105,-218 "/>
<text text-anchor="start" x="7.5" y="-201.4" style="font-family:Times New Roman;font-size:14.00;">create</text>
<text text-anchor="start" x="7.5" y="-183.4" style="font-family:Times New Roman;font-size:14.00;">destroy</text>
<text text-anchor="start" x="7.5" y="-165.4" style="font-family:Times New Roman;font-size:14.00;">show</text>
<text text-anchor="start" x="7.5" y="-147.4" style="font-family:Times New Roman;font-size:14.00;">update</text>
<polyline style="fill:none;stroke:black;" points="0,-138 105,-138 "/>
<polyline style="fill:none;stroke:black;" points="0,-114 105,-114 "/>
</g>
<!-- GraphsController -->
<g id="node2" class="node"><title>GraphsController</title>
<polyline style="fill:none;stroke:black;" points="134,-0 235,-0 "/>
<path style="fill:none;stroke:black;" d="M235,-0C241,-0 247,-6 247,-12"/>
<polyline style="fill:none;stroke:black;" points="247,-12 247,-322 "/>
<path style="fill:none;stroke:black;" d="M247,-322C247,-328 241,-334 235,-334"/>
<polyline style="fill:none;stroke:black;" points="235,-334 134,-334 "/>
<path style="fill:none;stroke:black;" d="M134,-334C128,-334 122,-328 122,-322"/>
<polyline style="fill:none;stroke:black;" points="122,-322 122,-12 "/>
<path style="fill:none;stroke:black;" d="M122,-12C122,-6 128,-0 134,-0"/>
<text text-anchor="middle" x="184" y="-317.4" style="font-family:Times New Roman;font-size:14.00;">GraphsController</text>
<polyline style="fill:none;stroke:black;" points="122,-308 247,-308 "/>
<text text-anchor="start" x="129.5" y="-291.4" style="font-family:Times New Roman;font-size:14.00;">create</text>
<text text-anchor="start" x="129.5" y="-273.4" style="font-family:Times New Roman;font-size:14.00;">destroy</text>
<text text-anchor="start" x="129.5" y="-255.4" style="font-family:Times New Roman;font-size:14.00;">edit</text>
<text text-anchor="start" x="129.5" y="-237.4" style="font-family:Times New Roman;font-size:14.00;">get_color</text>
<text text-anchor="start" x="129.5" y="-219.4" style="font-family:Times New Roman;font-size:14.00;">get_extents</text>
<text text-anchor="start" x="129.5" y="-201.4" style="font-family:Times New Roman;font-size:14.00;">get_note_ids</text>
<text text-anchor="start" x="129.5" y="-183.4" style="font-family:Times New Roman;font-size:14.00;">get_notes_by_name</text>
<text text-anchor="start" x="129.5" y="-165.4" style="font-family:Times New Roman;font-size:14.00;">get_notes_in_vport</text>
<text text-anchor="start" x="129.5" y="-147.4" style="font-family:Times New Roman;font-size:14.00;">index</text>
<text text-anchor="start" x="129.5" y="-129.4" style="font-family:Times New Roman;font-size:14.00;">new</text>
<text text-anchor="start" x="129.5" y="-111.4" style="font-family:Times New Roman;font-size:14.00;">request_empty</text>
<text text-anchor="start" x="129.5" y="-93.4" style="font-family:Times New Roman;font-size:14.00;">show</text>
<text text-anchor="start" x="129.5" y="-75.4" style="font-family:Times New Roman;font-size:14.00;">update</text>
<text text-anchor="start" x="129.5" y="-57.4" style="font-family:Times New Roman;font-size:14.00;">updated_since</text>
<polyline style="fill:none;stroke:black;" points="122,-48 247,-48 "/>
<polyline style="fill:none;stroke:black;" points="122,-24 247,-24 "/>
</g>
<!-- NotesController -->
<g id="node3" class="node"><title>NotesController</title>
<polyline style="fill:none;stroke:black;" points="276,-81 355,-81 "/>
<path style="fill:none;stroke:black;" d="M355,-81C361,-81 367,-87 367,-93"/>
<polyline style="fill:none;stroke:black;" points="367,-93 367,-241 "/>
<path style="fill:none;stroke:black;" d="M367,-241C367,-247 361,-253 355,-253"/>
<polyline style="fill:none;stroke:black;" points="355,-253 276,-253 "/>
<path style="fill:none;stroke:black;" d="M276,-253C270,-253 264,-247 264,-241"/>
<polyline style="fill:none;stroke:black;" points="264,-241 264,-93 "/>
<path style="fill:none;stroke:black;" d="M264,-93C264,-87 270,-81 276,-81"/>
<text text-anchor="middle" x="315" y="-236.4" style="font-family:Times New Roman;font-size:14.00;">NotesController</text>
<polyline style="fill:none;stroke:black;" points="264,-227 367,-227 "/>
<text text-anchor="start" x="271.5" y="-210.4" style="font-family:Times New Roman;font-size:14.00;">create</text>
<text text-anchor="start" x="271.5" y="-192.4" style="font-family:Times New Roman;font-size:14.00;">destroy</text>
<text text-anchor="start" x="271.5" y="-174.4" style="font-family:Times New Roman;font-size:14.00;">show</text>
<text text-anchor="start" x="271.5" y="-156.4" style="font-family:Times New Roman;font-size:14.00;">update</text>
<text text-anchor="start" x="271.5" y="-138.4" style="font-family:Times New Roman;font-size:14.00;">update_content</text>
<polyline style="fill:none;stroke:black;" points="264,-129 367,-129 "/>
<polyline style="fill:none;stroke:black;" points="264,-105 367,-105 "/>
</g>
<!-- SessionsController -->
<g id="node4" class="node"><title>SessionsController</title>
<polyline style="fill:none;stroke:black;" points="396,-99 490,-99 "/>
<path style="fill:none;stroke:black;" d="M490,-99C496,-99 502,-105 502,-111"/>
<polyline style="fill:none;stroke:black;" points="502,-111 502,-223 "/>
<path style="fill:none;stroke:black;" d="M502,-223C502,-229 496,-235 490,-235"/>
<polyline style="fill:none;stroke:black;" points="490,-235 396,-235 "/>
<path style="fill:none;stroke:black;" d="M396,-235C390,-235 384,-229 384,-223"/>
<polyline style="fill:none;stroke:black;" points="384,-223 384,-111 "/>
<path style="fill:none;stroke:black;" d="M384,-111C384,-105 390,-99 396,-99"/>
<text text-anchor="middle" x="443" y="-218.4" style="font-family:Times New Roman;font-size:14.00;">SessionsController</text>
<polyline style="fill:none;stroke:black;" points="384,-209 502,-209 "/>
<text text-anchor="start" x="392" y="-192.4" style="font-family:Times New Roman;font-size:14.00;">create</text>
<text text-anchor="start" x="392" y="-174.4" style="font-family:Times New Roman;font-size:14.00;">destroy</text>
<text text-anchor="start" x="392" y="-156.4" style="font-family:Times New Roman;font-size:14.00;">new</text>
<polyline style="fill:none;stroke:black;" points="384,-147 502,-147 "/>
<polyline style="fill:none;stroke:black;" points="384,-123 502,-123 "/>
</g>
<!-- SyncLogsController -->
<g id="node5" class="node"><title>SyncLogsController</title>
<polyline style="fill:none;stroke:black;" points="532,-108 634,-108 "/>
<path style="fill:none;stroke:black;" d="M634,-108C640,-108 646,-114 646,-120"/>
<polyline style="fill:none;stroke:black;" points="646,-120 646,-214 "/>
<path style="fill:none;stroke:black;" d="M646,-214C646,-220 640,-226 634,-226"/>
<polyline style="fill:none;stroke:black;" points="634,-226 532,-226 "/>
<path style="fill:none;stroke:black;" d="M532,-226C526,-226 520,-220 520,-214"/>
<polyline style="fill:none;stroke:black;" points="520,-214 520,-120 "/>
<path style="fill:none;stroke:black;" d="M520,-120C520,-114 526,-108 532,-108"/>
<text text-anchor="middle" x="583" y="-209.4" style="font-family:Times New Roman;font-size:14.00;">SyncLogsController</text>
<polyline style="fill:none;stroke:black;" points="520,-200 646,-200 "/>
<text text-anchor="start" x="528" y="-183.4" style="font-family:Times New Roman;font-size:14.00;">check_for_updates</text>
<text text-anchor="start" x="528" y="-165.4" style="font-family:Times New Roman;font-size:14.00;">time_now</text>
<polyline style="fill:none;stroke:black;" points="520,-156 646,-156 "/>
<polyline style="fill:none;stroke:black;" points="520,-132 646,-132 "/>
</g>
<!-- UsersController -->
<g id="node6" class="node"><title>UsersController</title>
<polyline style="fill:none;stroke:black;" points="676,-108 754,-108 "/>
<path style="fill:none;stroke:black;" d="M754,-108C760,-108 766,-114 766,-120"/>
<polyline style="fill:none;stroke:black;" points="766,-120 766,-214 "/>
<path style="fill:none;stroke:black;" d="M766,-214C766,-220 760,-226 754,-226"/>
<polyline style="fill:none;stroke:black;" points="754,-226 676,-226 "/>
<path style="fill:none;stroke:black;" d="M676,-226C670,-226 664,-220 664,-214"/>
<polyline style="fill:none;stroke:black;" points="664,-214 664,-120 "/>
<path style="fill:none;stroke:black;" d="M664,-120C664,-114 670,-108 676,-108"/>
<text text-anchor="middle" x="715" y="-209.4" style="font-family:Times New Roman;font-size:14.00;">UsersController</text>
<polyline style="fill:none;stroke:black;" points="664,-200 766,-200 "/>
<text text-anchor="start" x="672" y="-183.4" style="font-family:Times New Roman;font-size:14.00;">create</text>
<text text-anchor="start" x="672" y="-165.4" style="font-family:Times New Roman;font-size:14.00;">new</text>
<polyline style="fill:none;stroke:black;" points="664,-156 766,-156 "/>
<polyline style="fill:none;stroke:black;" points="664,-132 766,-132 "/>
</g>
<!-- ApplicationController -->
<g id="node7" class="node"><title>ApplicationController</title>
<polyline style="fill:none;stroke:black;" points="796,-118 907,-118 "/>
<path style="fill:none;stroke:black;" d="M907,-118C913,-118 919,-124 919,-130"/>
<polyline style="fill:none;stroke:black;" points="919,-130 919,-204 "/>
<path style="fill:none;stroke:black;" d="M919,-204C919,-210 913,-216 907,-216"/>
<polyline style="fill:none;stroke:black;" points="907,-216 796,-216 "/>
<path style="fill:none;stroke:black;" d="M796,-216C790,-216 784,-210 784,-204"/>
<polyline style="fill:none;stroke:black;" points="784,-204 784,-130 "/>
<path style="fill:none;stroke:black;" d="M784,-130C784,-124 790,-118 796,-118"/>
<text text-anchor="middle" x="851" y="-199.4" style="font-family:Times New Roman;font-size:14.00;">ApplicationController</text>
<polyline style="fill:none;stroke:black;" points="784,-190 919,-190 "/>
<polyline style="fill:none;stroke:black;" points="784,-166 919,-166 "/>
<polyline style="fill:none;stroke:black;" points="784,-142 919,-142 "/>
</g>
</g>
</svg>
