<?xml version="1.0" encoding="UTF-8" standalone="no"?>
<!DOCTYPE svg PUBLIC "-//W3C//DTD SVG 1.0//EN"
 "http://www.w3.org/TR/2001/REC-SVG-20010904/DTD/svg10.dtd" [
 <!ATTLIST svg xmlns:xlink CDATA #FIXED "http://www.w3.org/1999/xlink">
]>
<!-- Generated by Graphviz version 2.18 (Wed Aug &#160;6 10:29:47 UTC 2008)
     For user: (jukka) jukka,,, -->
<!-- Title: models_diagram Pages: 1 -->
<svg width="478pt" height="778pt"
 viewBox="0.00 0.00 478.00 778.00" xmlns="http://www.w3.org/2000/svg" xmlns:xlink="http://www.w3.org/1999/xlink">
<g id="graph0" class="graph" transform="scale(1 1) rotate(0) translate(4 774)">
<title>models_diagram</title>
<polygon style="fill:white;stroke:white;" points="-4,4 -4,-774 474,-774 474,4 -4,4"/>
<!-- Article -->
<g id="node1" class="node"><title>Article</title>
<polyline style="fill:none;stroke:black;" points="12,-412 119,-412 "/>
<path style="fill:none;stroke:black;" d="M119,-412C125,-412 131,-418 131,-424"/>
<polyline style="fill:none;stroke:black;" points="131,-424 131,-506 "/>
<path style="fill:none;stroke:black;" d="M131,-506C131,-512 125,-518 119,-518"/>
<polyline style="fill:none;stroke:black;" points="119,-518 12,-518 "/>
<path style="fill:none;stroke:black;" d="M12,-518C6,-518 0,-512 0,-506"/>
<polyline style="fill:none;stroke:black;" points="0,-506 0,-424 "/>
<path style="fill:none;stroke:black;" d="M0,-424C0,-418 6,-412 12,-412"/>
<text text-anchor="middle" x="65" y="-501.4" style="font-family:Times New Roman;font-size:14.00;">Article</text>
<polyline style="fill:none;stroke:black;" points="0,-492 131,-492 "/>
<text text-anchor="start" x="7.5" y="-475.4" style="font-family:Times New Roman;font-size:14.00;">content :text</text>
<text text-anchor="start" x="7.5" y="-457.4" style="font-family:Times New Roman;font-size:14.00;">created_at :datetime</text>
<text text-anchor="start" x="7.5" y="-439.4" style="font-family:Times New Roman;font-size:14.00;">updated_at :datetime</text>
<text text-anchor="start" x="7.5" y="-421.4" style="font-family:Times New Roman;font-size:14.00;">content_type :integer</text>
</g>
<!-- Note -->
<g id="node4" class="node"><title>Note</title>
<polyline style="fill:none;stroke:black;" points="55,-178 161,-178 "/>
<path style="fill:none;stroke:black;" d="M161,-178C167,-178 173,-184 173,-190"/>
<polyline style="fill:none;stroke:black;" points="173,-190 173,-362 "/>
<path style="fill:none;stroke:black;" d="M173,-362C173,-368 167,-374 161,-374"/>
<polyline style="fill:none;stroke:black;" points="161,-374 55,-374 "/>
<path style="fill:none;stroke:black;" d="M55,-374C49,-374 43,-368 43,-362"/>
<polyline style="fill:none;stroke:black;" points="43,-362 43,-190 "/>
<path style="fill:none;stroke:black;" d="M43,-190C43,-184 49,-178 55,-178"/>
<text text-anchor="middle" x="108" y="-357.4" style="font-family:Times New Roman;font-size:14.00;">Note</text>
<polyline style="fill:none;stroke:black;" points="43,-348 173,-348 "/>
<text text-anchor="start" x="51" y="-331.4" style="font-family:Times New Roman;font-size:14.00;">name :string</text>
<text text-anchor="start" x="51" y="-313.4" style="font-family:Times New Roman;font-size:14.00;">x :integer</text>
<text text-anchor="start" x="51" y="-295.4" style="font-family:Times New Roman;font-size:14.00;">y :integer</text>
<text text-anchor="start" x="51" y="-277.4" style="font-family:Times New Roman;font-size:14.00;">width :integer</text>
<text text-anchor="start" x="51" y="-259.4" style="font-family:Times New Roman;font-size:14.00;">height :integer</text>
<text text-anchor="start" x="51" y="-241.4" style="font-family:Times New Roman;font-size:14.00;">color :string</text>
<text text-anchor="start" x="51" y="-223.4" style="font-family:Times New Roman;font-size:14.00;">created_at :datetime</text>
<text text-anchor="start" x="51" y="-205.4" style="font-family:Times New Roman;font-size:14.00;">updated_at :datetime</text>
<text text-anchor="start" x="51" y="-187.4" style="font-family:Times New Roman;font-size:14.00;">zorder :integer</text>
</g>
<!-- Article&#45;&gt;Note -->
<g id="edge2" class="edge"><title>Article&#45;&gt;Note</title>
<path style="fill:none;stroke:black;" d="M79,-402C81,-396 83,-389 84,-382"/>
<polygon style="fill:black;stroke:black;" points="78.9612,-402.194 72.5874,-411.117 77.9806,-407.097 77,-412 77,-412 77,-412 77.9806,-407.097 81.4126,-412.883 78.9612,-402.194 78.9612,-402.194"/>
<ellipse style="fill:black;stroke:black;" cx="85.0298" cy="-377.881" rx="4.00001" ry="4.00001"/>
</g>
<!-- Edge -->
<g id="node2" class="node"><title>Edge</title>
<polyline style="fill:none;stroke:black;" points="55,-0 161,-0 "/>
<path style="fill:none;stroke:black;" d="M161,-0C167,-0 173,-6 173,-12"/>
<polyline style="fill:none;stroke:black;" points="173,-12 173,-112 "/>
<path style="fill:none;stroke:black;" d="M173,-112C173,-118 167,-124 161,-124"/>
<polyline style="fill:none;stroke:black;" points="161,-124 55,-124 "/>
<path style="fill:none;stroke:black;" d="M55,-124C49,-124 43,-118 43,-112"/>
<polyline style="fill:none;stroke:black;" points="43,-112 43,-12 "/>
<path style="fill:none;stroke:black;" d="M43,-12C43,-6 49,-0 55,-0"/>
<text text-anchor="middle" x="108" y="-107.4" style="font-family:Times New Roman;font-size:14.00;">Edge</text>
<polyline style="fill:none;stroke:black;" points="43,-98 173,-98 "/>
<text text-anchor="start" x="51" y="-81.4" style="font-family:Times New Roman;font-size:14.00;">directed :boolean</text>
<text text-anchor="start" x="51" y="-63.4" style="font-family:Times New Roman;font-size:14.00;">name :string</text>
<text text-anchor="start" x="51" y="-45.4" style="font-family:Times New Roman;font-size:14.00;">color :string</text>
<text text-anchor="start" x="51" y="-27.4" style="font-family:Times New Roman;font-size:14.00;">created_at :datetime</text>
<text text-anchor="start" x="51" y="-9.4" style="font-family:Times New Roman;font-size:14.00;">updated_at :datetime</text>
</g>
<!-- Graph -->
<g id="node3" class="node"><title>Graph</title>
<polyline style="fill:none;stroke:black;" points="160,-412 266,-412 "/>
<path style="fill:none;stroke:black;" d="M266,-412C272,-412 278,-418 278,-424"/>
<polyline style="fill:none;stroke:black;" points="278,-424 278,-506 "/>
<path style="fill:none;stroke:black;" d="M278,-506C278,-512 272,-518 266,-518"/>
<polyline style="fill:none;stroke:black;" points="266,-518 160,-518 "/>
<path style="fill:none;stroke:black;" d="M160,-518C154,-518 148,-512 148,-506"/>
<polyline style="fill:none;stroke:black;" points="148,-506 148,-424 "/>
<path style="fill:none;stroke:black;" d="M148,-424C148,-418 154,-412 160,-412"/>
<text text-anchor="middle" x="213" y="-501.4" style="font-family:Times New Roman;font-size:14.00;">Graph</text>
<polyline style="fill:none;stroke:black;" points="148,-492 278,-492 "/>
<text text-anchor="start" x="156" y="-475.4" style="font-family:Times New Roman;font-size:14.00;">name :string</text>
<text text-anchor="start" x="156" y="-457.4" style="font-family:Times New Roman;font-size:14.00;">created_at :datetime</text>
<text text-anchor="start" x="156" y="-439.4" style="font-family:Times New Roman;font-size:14.00;">updated_at :datetime</text>
<text text-anchor="start" x="156" y="-421.4" style="font-family:Times New Roman;font-size:14.00;">color :string</text>
</g>
<!-- Graph&#45;&gt;Note -->
<g id="edge4" class="edge"><title>Graph&#45;&gt;Note</title>
<path style="fill:none;stroke:black;" d="M178,-403C174,-396 170,-389 166,-381"/>
<polygon style="fill:black;stroke:black;" points="178.144,-403.258 179.066,-414.185 180.572,-407.629 183,-412 183,-412 183,-412 180.572,-407.629 186.934,-409.815 178.144,-403.258 178.144,-403.258"/>
<ellipse style="fill:black;stroke:black;" cx="163.985" cy="-377.473" rx="4.00002" ry="4.00002"/>
</g>
<!-- Note&#45;&gt;Edge -->
<g id="edge6" class="edge"><title>Note&#45;&gt;Edge</title>
<path style="fill:none;stroke:black;" d="M72,-168C72,-159 73,-151 74,-142 75,-139 75,-135 76,-132"/>
<polygon style="fill:black;stroke:black;" points="72.0049,-168.05 68.5223,-178.448 72.5024,-173.025 73,-178 73,-178 73,-178 72.5024,-173.025 77.4777,-177.552 72.0049,-168.05 72.0049,-168.05"/>
<ellipse style="fill:black;stroke:black;" cx="77.5955" cy="-127.745" rx="4.00001" ry="4.00001"/>
<text text-anchor="middle" x="98" y="-147.4" style="font-family:Times New Roman;font-size:14.00;">edges_to</text>
</g>
<!-- Note&#45;&gt;Edge -->
<g id="edge8" class="edge"><title>Note&#45;&gt;Edge</title>
<path style="fill:none;stroke:black;" d="M123,-168C123,-159 123,-151 122,-142 121,-139 121,-135 121,-132"/>
<polygon style="fill:black;stroke:black;" points="123,-168 118.5,-178 123,-173 123,-178 123,-178 123,-178 123,-173 127.5,-178 123,-168 123,-168"/>
<ellipse style="fill:black;stroke:black;" cx="120.496" cy="-127.969" rx="4.00001" ry="4.00001"/>
<text text-anchor="middle" x="154" y="-147.4" style="font-family:Times New Roman;font-size:14.00;">edges_from</text>
</g>
<!-- SyncLog -->
<g id="node5" class="node"><title>SyncLog</title>
<polyline style="fill:none;stroke:black;" points="356,-619 458,-619 "/>
<path style="fill:none;stroke:black;" d="M458,-619C464,-619 470,-625 470,-631"/>
<polyline style="fill:none;stroke:black;" points="470,-631 470,-695 "/>
<path style="fill:none;stroke:black;" d="M470,-695C470,-701 464,-707 458,-707"/>
<polyline style="fill:none;stroke:black;" points="458,-707 356,-707 "/>
<path style="fill:none;stroke:black;" d="M356,-707C350,-707 344,-701 344,-695"/>
<polyline style="fill:none;stroke:black;" points="344,-695 344,-631 "/>
<path style="fill:none;stroke:black;" d="M344,-631C344,-625 350,-619 356,-619"/>
<text text-anchor="middle" x="407" y="-690.4" style="font-family:Times New Roman;font-size:14.00;">SyncLog</text>
<polyline style="fill:none;stroke:black;" points="344,-681 470,-681 "/>
<text text-anchor="start" x="352" y="-664.4" style="font-family:Times New Roman;font-size:14.00;">created_at :datetime</text>
<text text-anchor="start" x="352" y="-646.4" style="font-family:Times New Roman;font-size:14.00;">params :text</text>
<text text-anchor="start" x="352" y="-628.4" style="font-family:Times New Roman;font-size:14.00;">sessionid :string</text>
</g>
<!-- User -->
<g id="node6" class="node"><title>User</title>
<polyline style="fill:none;stroke:black;" points="112,-556 314,-556 "/>
<path style="fill:none;stroke:black;" d="M314,-556C320,-556 326,-562 326,-568"/>
<polyline style="fill:none;stroke:black;" points="326,-568 326,-758 "/>
<path style="fill:none;stroke:black;" d="M326,-758C326,-764 320,-770 314,-770"/>
<polyline style="fill:none;stroke:black;" points="314,-770 112,-770 "/>
<path style="fill:none;stroke:black;" d="M112,-770C106,-770 100,-764 100,-758"/>
<polyline style="fill:none;stroke:black;" points="100,-758 100,-568 "/>
<path style="fill:none;stroke:black;" d="M100,-568C100,-562 106,-556 112,-556"/>
<text text-anchor="middle" x="213" y="-753.4" style="font-family:Times New Roman;font-size:14.00;">User</text>
<polyline style="fill:none;stroke:black;" points="100,-744 326,-744 "/>
<text text-anchor="start" x="108" y="-727.4" style="font-family:Times New Roman;font-size:14.00;">login :string</text>
<text text-anchor="start" x="108" y="-709.4" style="font-family:Times New Roman;font-size:14.00;">email :string</text>
<text text-anchor="start" x="108" y="-691.4" style="font-family:Times New Roman;font-size:14.00;">crypted_password :string</text>
<text text-anchor="start" x="108" y="-673.4" style="font-family:Times New Roman;font-size:14.00;">salt :string</text>
<text text-anchor="start" x="108" y="-655.4" style="font-family:Times New Roman;font-size:14.00;">created_at :datetime</text>
<text text-anchor="start" x="108" y="-637.4" style="font-family:Times New Roman;font-size:14.00;">updated_at :datetime</text>
<text text-anchor="start" x="108" y="-619.4" style="font-family:Times New Roman;font-size:14.00;">remember_token :string</text>
<text text-anchor="start" x="108" y="-601.4" style="font-family:Times New Roman;font-size:14.00;">remember_token_expires_at :datetime</text>
<text text-anchor="start" x="108" y="-583.4" style="font-family:Times New Roman;font-size:14.00;">deleted :boolean</text>
<text text-anchor="start" x="108" y="-565.4" style="font-family:Times New Roman;font-size:14.00;">admin :boolean</text>
</g>
<!-- User&#45;&gt;Graph -->
<g id="edge10" class="edge"><title>User&#45;&gt;Graph</title>
<path style="fill:none;stroke:black;" d="M213,-546C213,-539 213,-532 213,-526"/>
<polygon style="fill:black;stroke:black;" points="213,-546 208.5,-556 213,-551 213,-556 213,-556 213,-556 213,-551 217.5,-556 213,-546 213,-546"/>
<ellipse style="fill:black;stroke:black;" cx="213" cy="-522" rx="4" ry="4"/>
</g>
</g>
</svg>
